<svg width="21.9999" height="20.9883" viewBox="0 0 21.9999 20.9883" fill="none" xmlns="http://www.w3.org/2000/svg">
<path d="M16.8778 18.0784C15.1693 19.3197 13.1117 19.9883 10.9999 19.9883C8.88812 19.9883 6.83054 19.3197 5.12206 18.0784M15.3836 1.00032C17.2817 1.92607 18.838 3.42895 19.8294 5.29355C20.8208 7.15815 21.1965 9.28875 20.9026 11.38M1.09733 11.3799C0.803427 9.28866 1.17911 7.15805 2.17054 5.29345C3.16196 3.42885 4.71823 1.92598 6.6163 1.00023M16.4999 9.98827C16.4999 13.0258 14.0375 15.4883 10.9999 15.4883C7.96235 15.4883 5.49991 13.0258 5.49991 9.98827C5.49991 6.9507 7.96235 4.48827 10.9999 4.48827C14.0375 4.48827 16.4999 6.9507 16.4999 9.98827Z" stroke="currentColor" stroke-width="2" stroke-linecap="round" stroke-linejoin="round"/>
</svg>
